<?xml version="1.0" standalone="no"?>
<!DOCTYPE svg PUBLIC "-//W3C//DTD SVG 20010904//EN"
 "http://www.w3.org/TR/2001/REC-SVG-20010904/DTD/svg10.dtd">
<svg version="1.0" xmlns="http://www.w3.org/2000/svg"
 width="731.000000pt" height="731.000000pt" viewBox="0 0 731.000000 731.000000"
 preserveAspectRatio="xMidYMid meet">
<metadata>
Created by potrace 1.14, written by Peter Selinger 2001-2017
</metadata>
<g transform="translate(0.000000,731.000000) scale(0.100000,-0.100000)"
fill="#000000" stroke="none">
<path d="M5258 5256 c-1 -2 -48 -6 -103 -10 -116 -7 -253 -34 -357 -71 -40
-14 -77 -27 -83 -28 -17 -5 -117 -50 -149 -67 -109 -57 -148 -83 -266 -175
-14 -10 -68 -63 -121 -116 -228 -230 -385 -558 -425 -889 -8 -63 -8 -309 0
-345 3 -16 9 -50 12 -75 10 -72 51 -222 84 -304 38 -98 128 -270 149 -286 3
-3 13 -17 21 -31 52 -91 253 -292 376 -376 139 -95 338 -193 423 -208 15 -2
46 -11 69 -19 23 -8 61 -18 84 -21 23 -4 45 -8 48 -10 9 -6 171 -18 235 -18
74 0 226 11 246 17 8 3 32 8 54 11 76 11 269 69 293 88 6 5 12 7 12 3 0 -9
187 90 254 136 161 109 313 260 419 417 57 85 157 276 157 301 0 9 4 20 9 26
6 5 17 36 26 69 9 33 19 69 22 80 22 82 44 258 45 360 1 135 -3 171 -38 360
-12 67 -69 223 -116 319 -44 89 -103 192 -118 206 -3 3 -25 32 -50 64 -57 75
-157 178 -235 242 -33 27 -62 51 -65 54 -30 31 -241 144 -335 179 -33 13 -69
27 -80 31 -42 17 -81 30 -105 35 -14 2 -47 9 -75 15 -85 18 -95 19 -194 25
-53 4 -101 8 -108 10 -6 2 -13 2 -15 1z"/>
<path d="M1899 5246 c-2 -2 -26 -6 -54 -9 -93 -11 -180 -29 -255 -55 -8 -3
-20 -6 -27 -8 -6 -1 -42 -14 -80 -29 -582 -232 -963 -790 -964 -1410 0 -143
10 -234 45 -384 21 -91 130 -358 156 -381 3 -3 14 -21 25 -41 82 -149 277
-350 453 -468 141 -95 361 -189 503 -216 13 -3 35 -7 49 -10 55 -12 78 -15
145 -22 170 -16 371 2 560 50 118 30 291 110 415 191 113 75 129 88 235 191
184 180 298 362 382 609 18 55 36 116 39 135 3 20 8 45 11 56 3 11 7 31 9 45
1 14 6 50 10 80 13 94 8 300 -11 390 -3 14 -7 39 -10 55 -9 62 -17 93 -50 193
-40 118 -127 302 -162 340 -7 7 -13 17 -13 22 0 5 -6 15 -13 22 -7 7 -24 29
-37 48 -112 160 -335 347 -530 445 -114 57 -281 115 -390 135 -30 6 -66 13
-80 16 -27 6 -356 15 -361 10z"/>
</g>
</svg>
